<svg id="svg" version="1.1" xmlns="http://www.w3.org/2000/svg" xmlns:xlink="http://www.w3.org/1999/xlink" width="198" height="198" viewBox="0, 0, 400,400"><g id="svgg"><path id="path0" d="M65.717 51.544 L 64.853 52.500 65.809 51.636 C 66.700 50.831,66.900 50.588,66.673 50.588 C 66.622 50.588,66.192 51.018,65.717 51.544 M335.000 52.206 C 335.549 52.772,336.064 53.235,336.145 53.235 C 336.226 53.235,335.843 52.772,335.294 52.206 C 334.745 51.640,334.230 51.176,334.149 51.176 C 334.068 51.176,334.451 51.640,335.000 52.206 M58.379 58.603 L 53.676 63.382 58.456 58.680 C 62.896 54.311,63.368 53.824,63.158 53.824 C 63.116 53.824,60.965 55.974,58.379 58.603 M341.761 58.603 C 343.942 60.827,345.762 62.647,345.805 62.647 C 346.016 62.647,345.595 62.210,341.838 58.525 L 337.794 54.559 341.761 58.603 M347.941 65.147 C 348.490 65.713,349.005 66.176,349.086 66.176 C 349.167 66.176,348.784 65.713,348.235 65.147 C 347.687 64.581,347.171 64.118,347.090 64.118 C 347.010 64.118,347.392 64.581,347.941 65.147 M51.305 65.956 L 50.441 66.912 51.397 66.048 C 52.288 65.243,52.488 65.000,52.261 65.000 C 52.210 65.000,51.780 65.430,51.305 65.956 M176.537 69.774 C 175.748 70.154,155.043 107.234,154.796 108.710 C 154.663 109.497,155.911 111.909,163.652 125.839 C 168.608 134.755,172.739 142.251,172.833 142.496 C 172.985 142.891,170.912 142.941,154.607 142.941 L 136.209 142.941 135.449 143.603 C 134.054 144.817,113.762 181.776,113.953 182.756 C 114.043 183.220,118.198 190.962,123.185 199.961 L 132.253 216.324 113.635 216.471 C 95.506 216.614,95.001 216.633,94.438 217.206 C 93.196 218.470,73.120 255.070,73.155 256.007 C 73.195 257.107,93.471 293.925,94.588 294.926 L 95.327 295.588 116.502 295.588 C 134.195 295.588,137.807 295.520,138.470 295.172 C 139.080 294.852,141.381 290.929,148.377 278.279 C 153.388 269.217,157.522 261.836,157.564 261.877 C 157.605 261.918,161.726 269.341,166.722 278.372 C 172.891 289.523,176.030 294.916,176.506 295.179 C 177.815 295.905,219.417 295.753,220.350 295.019 C 220.749 294.705,225.093 287.177,230.022 278.259 C 234.944 269.354,239.053 262.066,239.153 262.063 C 239.254 262.061,243.334 269.305,248.219 278.162 C 253.105 287.018,257.431 294.563,257.832 294.926 L 258.562 295.588 280.050 295.588 L 301.538 295.588 302.265 294.779 C 303.688 293.196,323.520 256.982,323.525 255.958 C 323.529 255.080,304.257 219.845,302.443 217.415 L 301.848 216.618 283.143 216.471 L 264.438 216.324 273.572 199.853 C 280.143 188.003,282.706 183.122,282.706 182.454 C 282.706 181.496,262.646 144.921,261.437 143.676 C 260.881 143.104,260.379 143.084,242.248 142.941 L 223.629 142.794 232.844 126.199 C 237.912 117.071,242.059 109.319,242.059 108.972 C 242.059 108.099,221.374 70.892,220.433 70.074 L 219.673 69.412 198.439 69.432 C 183.681 69.446,177.002 69.550,176.537 69.774 M226.546 92.047 L 235.939 108.948 234.893 110.871 C 234.318 111.929,230.090 119.544,225.499 127.794 L 217.151 142.794 198.355 142.866 L 179.559 142.938 170.181 125.999 C 161.021 109.453,160.813 109.040,161.210 108.227 C 161.434 107.769,165.654 100.107,170.588 91.200 L 179.559 75.006 198.356 75.077 L 217.153 75.147 226.546 92.047 M185.710 165.497 L 195.097 182.445 194.450 183.649 C 194.093 184.311,189.869 191.934,185.063 200.588 L 176.324 216.324 157.511 216.324 L 138.699 216.324 129.626 200.000 C 124.636 191.022,120.415 183.395,120.246 183.052 C 119.987 182.524,134.637 155.234,138.422 149.191 L 138.837 148.529 157.580 148.540 L 176.324 148.550 185.710 165.497 M213.824 148.672 C 213.824 149.147,198.372 176.428,198.204 176.249 C 197.921 175.947,183.313 149.684,183.072 149.044 C 182.889 148.558,183.737 148.529,198.351 148.529 C 206.861 148.529,213.824 148.594,213.824 148.672 M267.392 165.570 L 276.780 182.464 267.337 199.467 L 257.895 216.471 239.151 216.471 L 220.408 216.471 211.013 199.508 C 205.845 190.178,201.646 182.450,201.680 182.334 C 201.715 182.219,205.943 174.564,211.077 165.325 L 220.411 148.525 239.207 148.601 L 258.004 148.676 267.392 165.570 M206.286 202.594 C 210.432 210.087,213.824 216.274,213.824 216.344 C 213.824 216.414,206.861 216.471,198.351 216.471 C 183.852 216.471,182.890 216.439,183.072 215.966 C 183.275 215.437,197.104 190.363,197.857 189.160 C 198.428 188.245,197.749 187.163,206.286 202.594 M144.559 238.404 C 149.574 247.393,153.795 255.052,153.940 255.423 C 154.163 255.995,152.776 258.678,144.822 273.049 L 135.441 290.000 116.661 289.926 L 97.881 289.853 88.492 272.887 L 79.102 255.920 88.408 239.210 C 93.527 230.020,97.774 222.401,97.845 222.279 C 97.917 222.158,106.406 222.059,116.709 222.060 L 135.441 222.060 144.559 238.404 M172.941 222.241 C 172.941 222.756,157.537 250.003,157.362 249.799 C 157.069 249.458,142.059 222.400,142.059 222.213 C 142.059 222.128,149.007 222.059,157.500 222.059 C 165.993 222.059,172.941 222.141,172.941 222.241 M226.525 238.971 C 231.665 248.191,235.873 255.812,235.876 255.905 C 235.880 255.999,231.670 263.675,226.522 272.964 L 217.161 289.853 198.360 289.922 L 179.559 289.991 170.294 273.208 C 165.199 263.978,161.029 256.199,161.029 255.923 C 161.029 255.646,165.199 247.916,170.294 238.744 L 179.559 222.069 198.369 222.137 L 217.179 222.206 226.525 238.971 M253.330 224.661 C 247.265 235.786,239.229 249.924,239.064 249.760 C 238.954 249.649,235.733 243.934,231.907 237.059 C 228.081 230.184,224.625 223.996,224.228 223.309 L 223.505 222.059 239.127 222.059 L 254.749 222.059 253.330 224.661 M308.022 238.750 C 313.129 247.930,317.351 255.587,317.404 255.766 C 317.457 255.944,313.275 263.720,308.111 273.045 L 298.722 290.000 279.984 290.000 L 261.246 290.000 251.906 273.162 C 246.769 263.901,242.562 256.178,242.558 256.000 C 242.553 255.823,246.751 248.113,251.887 238.868 L 261.225 222.059 279.981 222.059 L 298.737 222.059 308.022 238.750 M348.364 334.779 L 347.500 335.735 348.456 334.871 C 349.347 334.066,349.547 333.824,349.320 333.824 C 349.269 333.824,348.839 334.254,348.364 334.779 M52.059 335.147 C 52.608 335.713,53.123 336.176,53.204 336.176 C 53.285 336.176,52.902 335.713,52.353 335.147 C 51.804 334.581,51.289 334.118,51.208 334.118 C 51.127 334.118,51.510 334.581,52.059 335.147 M341.614 341.838 L 336.912 346.618 341.691 341.915 C 346.131 337.547,346.604 337.059,346.394 337.059 C 346.351 337.059,344.201 339.210,341.614 341.838 M58.382 341.765 C 60.643 344.029,62.558 345.882,62.639 345.882 C 62.720 345.882,60.937 344.029,58.676 341.765 C 56.416 339.500,54.501 337.647,54.420 337.647 C 54.339 337.647,56.122 339.500,58.382 341.765 M65.000 348.088 C 65.549 348.654,66.064 349.118,66.145 349.118 C 66.226 349.118,65.843 348.654,65.294 348.088 C 64.745 347.522,64.230 347.059,64.149 347.059 C 64.068 347.059,64.451 347.522,65.000 348.088 M334.396 348.750 L 333.382 349.853 334.485 348.839 C 335.512 347.896,335.723 347.647,335.499 347.647 C 335.450 347.647,334.953 348.143,334.396 348.750 M67.059 349.798 C 67.059 349.849,67.489 350.279,68.015 350.754 L 68.971 351.618 68.107 350.662 C 67.302 349.771,67.059 349.571,67.059 349.798 " stroke="none" fill="#fafafa" fill-rule="evenodd"></path><path id="path1" d="M189.412 0.294 C 59.724 7.890,-28.191 132.757,8.423 257.353 C 22.318 304.638,54.464 346.033,97.206 371.678 C 105.978 376.942,121.015 384.475,121.594 383.897 C 121.688 383.802,121.765 383.880,121.765 384.069 C 121.765 384.257,121.864 384.385,121.985 384.351 C 122.107 384.318,122.604 384.503,123.091 384.763 C 123.577 385.023,124.239 385.282,124.561 385.338 C 124.883 385.395,125.225 385.547,125.321 385.676 C 125.416 385.806,125.780 385.933,126.129 385.960 C 126.479 385.986,126.765 386.120,126.765 386.256 C 126.765 386.393,126.888 386.429,127.039 386.336 C 127.189 386.243,127.397 386.304,127.500 386.471 C 127.603 386.638,127.802 386.704,127.941 386.618 C 128.081 386.531,128.279 386.598,128.382 386.765 C 128.486 386.932,128.693 386.992,128.844 386.899 C 128.994 386.806,129.118 386.892,129.118 387.090 C 129.118 387.289,129.205 387.364,129.311 387.257 C 129.418 387.151,129.682 387.211,129.899 387.392 C 130.116 387.572,130.294 387.620,130.294 387.500 C 130.294 387.380,130.493 387.446,130.735 387.647 C 130.978 387.848,131.178 387.898,131.181 387.757 C 131.183 387.615,131.288 387.662,131.414 387.860 C 131.540 388.058,131.968 388.280,132.366 388.353 C 132.763 388.426,133.121 388.512,133.162 388.544 C 133.202 388.577,133.368 388.636,133.529 388.676 C 133.691 388.717,133.890 388.783,133.971 388.824 C 134.051 388.864,134.250 388.930,134.412 388.971 C 134.574 389.011,134.805 389.076,134.926 389.116 C 135.048 389.155,135.246 389.172,135.368 389.152 C 135.489 389.133,135.588 389.264,135.588 389.443 C 135.588 389.622,135.787 389.693,136.029 389.600 C 136.272 389.506,136.471 389.573,136.471 389.747 C 136.471 389.921,136.669 389.987,136.912 389.894 C 137.154 389.801,137.353 389.867,137.353 390.041 C 137.353 390.215,137.551 390.281,137.794 390.188 C 138.037 390.095,138.235 390.161,138.235 390.335 C 138.235 390.509,138.430 390.577,138.667 390.485 C 138.905 390.394,139.178 390.449,139.276 390.606 C 139.373 390.763,139.566 390.821,139.706 390.735 C 139.845 390.649,140.044 390.715,140.147 390.882 C 140.250 391.049,140.449 391.116,140.588 391.029 C 140.728 390.943,140.926 391.009,141.029 391.176 C 141.133 391.344,141.331 391.410,141.471 391.324 C 141.610 391.237,141.804 391.296,141.901 391.453 C 141.998 391.610,142.259 391.670,142.480 391.585 C 142.701 391.500,142.970 391.574,143.079 391.749 C 143.187 391.925,143.390 391.998,143.529 391.912 C 143.669 391.826,143.862 391.884,143.960 392.041 C 144.057 392.199,144.331 392.253,144.568 392.162 C 144.806 392.070,145.000 392.157,145.000 392.353 C 145.000 392.549,145.194 392.635,145.432 392.544 C 145.669 392.453,145.943 392.507,146.040 392.665 C 146.138 392.822,146.346 392.871,146.504 392.774 C 146.661 392.676,146.983 392.756,147.219 392.952 C 147.454 393.147,147.647 393.209,147.647 393.088 C 147.647 392.968,147.829 393.020,148.051 393.204 C 148.273 393.389,148.670 393.457,148.933 393.356 C 149.213 393.249,149.412 393.321,149.412 393.529 C 149.412 393.726,149.606 393.812,149.844 393.721 C 150.081 393.630,150.350 393.676,150.441 393.824 C 150.532 393.971,150.788 394.023,151.009 393.938 C 151.230 393.853,151.500 393.927,151.608 394.102 C 151.717 394.278,151.934 394.342,152.092 394.244 C 152.250 394.147,152.566 394.222,152.794 394.412 C 153.023 394.601,153.339 394.677,153.496 394.579 C 153.654 394.482,153.869 394.542,153.975 394.713 C 154.081 394.884,154.421 394.943,154.731 394.845 C 155.060 394.741,155.294 394.805,155.294 395.000 C 155.294 395.195,155.528 395.259,155.858 395.155 C 156.168 395.057,156.503 395.108,156.602 395.269 C 156.702 395.431,156.964 395.493,157.186 395.408 C 157.407 395.323,157.678 395.401,157.789 395.580 C 157.900 395.760,158.233 395.829,158.529 395.735 C 158.826 395.641,159.157 395.707,159.265 395.882 C 159.373 396.057,159.704 396.123,160.000 396.029 C 160.296 395.935,160.627 396.002,160.735 396.176 C 160.843 396.351,161.174 396.418,161.471 396.324 C 161.767 396.229,162.095 396.291,162.199 396.460 C 162.304 396.629,162.712 396.686,163.106 396.587 C 163.549 396.476,163.824 396.534,163.824 396.738 C 163.824 396.941,164.097 397.001,164.527 396.894 C 164.914 396.796,165.319 396.861,165.427 397.036 C 165.536 397.212,165.933 397.278,166.309 397.183 C 166.686 397.089,167.083 397.155,167.192 397.330 C 167.300 397.506,167.697 397.572,168.074 397.477 C 168.451 397.383,168.845 397.444,168.950 397.614 C 169.056 397.785,169.527 397.845,170.011 397.748 C 170.580 397.634,170.882 397.693,170.882 397.918 C 170.882 398.150,171.207 398.201,171.878 398.075 C 172.464 397.965,172.953 398.016,173.066 398.199 C 173.172 398.370,173.634 398.435,174.093 398.343 C 174.565 398.249,175.016 398.317,175.129 398.500 C 175.252 398.700,175.763 398.756,176.451 398.645 C 177.143 398.535,177.651 398.591,177.775 398.792 C 177.899 398.994,178.407 399.050,179.098 398.940 C 179.765 398.833,180.298 398.886,180.412 399.071 C 180.529 399.260,181.163 399.316,182.027 399.214 C 182.936 399.106,183.524 399.165,183.654 399.376 C 183.789 399.594,184.399 399.643,185.441 399.521 C 186.311 399.419,187.263 399.445,187.556 399.579 C 188.310 399.924,212.353 399.946,212.353 399.602 C 212.353 399.441,213.205 399.398,214.412 399.499 C 215.798 399.615,216.471 399.568,216.471 399.354 C 216.471 399.144,217.022 399.092,218.088 399.202 C 219.143 399.311,219.706 399.260,219.706 399.055 C 219.706 398.851,220.224 398.803,221.186 398.917 C 222.228 399.040,222.607 398.996,222.465 398.768 C 222.325 398.541,222.677 398.489,223.632 398.597 C 224.458 398.690,225.000 398.634,225.000 398.455 C 225.000 398.278,225.477 398.222,226.176 398.316 C 226.893 398.412,227.353 398.354,227.353 398.169 C 227.353 397.985,227.762 397.931,228.389 398.032 C 229.101 398.148,229.363 398.099,229.226 397.878 C 229.088 397.655,229.360 397.609,230.101 397.730 C 230.777 397.839,231.176 397.787,231.176 397.590 C 231.176 397.395,231.569 397.340,232.212 397.444 C 232.924 397.560,233.186 397.511,233.049 397.290 C 232.912 397.068,233.141 397.025,233.778 397.153 C 234.369 397.271,234.706 397.221,234.706 397.015 C 234.706 396.812,235.036 396.757,235.588 396.868 C 236.134 396.977,236.471 396.923,236.471 396.725 C 236.471 396.532,236.760 396.480,237.206 396.591 C 237.667 396.707,237.941 396.651,237.941 396.442 C 237.941 396.244,238.241 396.165,238.676 396.248 C 239.081 396.326,239.412 396.260,239.412 396.101 C 239.412 395.943,239.743 395.877,240.147 395.954 C 240.551 396.032,240.882 395.967,240.882 395.810 C 240.882 395.650,241.216 395.608,241.642 395.715 C 242.188 395.852,242.341 395.808,242.187 395.557 C 242.034 395.310,242.199 395.252,242.750 395.358 C 243.179 395.440,243.529 395.377,243.529 395.219 C 243.529 395.061,243.856 394.994,244.256 395.070 C 244.695 395.154,244.910 395.093,244.800 394.915 C 244.689 394.734,244.920 394.678,245.397 394.770 C 245.826 394.851,246.176 394.790,246.176 394.633 C 246.176 394.473,246.511 394.432,246.936 394.539 C 247.486 394.677,247.636 394.632,247.479 394.377 C 247.326 394.130,247.450 394.074,247.895 394.191 C 248.244 394.282,248.529 394.221,248.529 394.056 C 248.529 393.890,248.794 393.824,249.118 393.909 C 249.441 393.993,249.706 393.927,249.706 393.762 C 249.706 393.596,249.971 393.530,250.294 393.615 C 250.618 393.699,250.882 393.633,250.882 393.468 C 250.882 393.302,251.147 393.236,251.471 393.321 C 251.794 393.405,252.059 393.339,252.059 393.173 C 252.059 393.008,252.324 392.942,252.647 393.027 C 253.018 393.123,253.164 393.065,253.043 392.867 C 252.919 392.667,253.077 392.614,253.483 392.720 C 253.832 392.811,254.118 392.751,254.118 392.585 C 254.118 392.420,254.383 392.354,254.706 392.438 C 255.077 392.535,255.223 392.476,255.101 392.279 C 254.978 392.079,255.136 392.026,255.542 392.132 C 255.891 392.223,256.176 392.162,256.176 391.997 C 256.176 391.831,256.441 391.765,256.765 391.850 C 257.136 391.947,257.282 391.888,257.160 391.691 C 257.036 391.490,257.195 391.438,257.601 391.544 C 258.008 391.650,258.167 391.597,258.043 391.397 C 257.919 391.196,258.077 391.143,258.483 391.250 C 258.832 391.341,259.118 391.287,259.118 391.129 C 259.118 390.971,259.397 390.932,259.743 391.041 C 260.203 391.187,260.307 391.142,260.138 390.868 C 259.970 390.597,260.080 390.541,260.543 390.662 C 260.949 390.768,261.108 390.715,260.984 390.514 C 260.860 390.314,261.018 390.261,261.425 390.367 C 261.832 390.474,261.990 390.421,261.866 390.220 C 261.742 390.020,261.901 389.967,262.307 390.073 C 262.714 390.180,262.872 390.127,262.749 389.926 C 262.625 389.726,262.783 389.673,263.190 389.779 C 263.596 389.886,263.755 389.833,263.631 389.632 C 263.507 389.432,263.665 389.379,264.072 389.485 C 264.479 389.591,264.637 389.539,264.513 389.338 C 264.389 389.137,264.548 389.085,264.954 389.191 C 265.361 389.297,265.520 389.244,265.396 389.044 C 265.272 388.843,265.430 388.790,265.837 388.897 C 266.247 389.004,266.402 388.951,266.276 388.746 C 266.152 388.546,266.260 388.498,266.569 388.617 C 266.839 388.721,267.059 388.663,267.059 388.489 C 267.059 388.315,267.257 388.249,267.500 388.342 C 267.743 388.435,267.941 388.369,267.941 388.195 C 267.941 388.021,268.147 387.957,268.398 388.053 C 268.694 388.167,268.781 388.110,268.646 387.891 C 268.504 387.662,268.640 387.607,269.072 387.720 C 269.483 387.828,269.638 387.775,269.511 387.570 C 269.387 387.369,269.495 387.322,269.805 387.441 C 270.074 387.544,270.294 387.486,270.294 387.312 C 270.294 387.138,270.500 387.075,270.751 387.171 C 271.046 387.285,271.134 387.228,270.999 387.009 C 270.857 386.780,270.993 386.725,271.425 386.838 C 271.836 386.945,271.991 386.892,271.864 386.687 C 271.740 386.487,271.848 386.440,272.158 386.558 C 272.427 386.662,272.647 386.604,272.647 386.430 C 272.647 386.256,272.852 386.192,273.104 386.289 C 273.402 386.403,273.487 386.346,273.349 386.123 C 273.209 385.896,273.301 385.845,273.628 385.970 C 273.898 386.074,274.118 386.016,274.118 385.842 C 274.118 385.668,274.323 385.604,274.574 385.700 C 274.872 385.815,274.958 385.757,274.820 385.535 C 274.679 385.307,274.772 385.257,275.099 385.382 C 275.368 385.485,275.588 385.428,275.588 385.253 C 275.588 385.079,275.794 385.016,276.045 385.112 C 276.335 385.224,276.427 385.168,276.298 384.958 C 276.176 384.761,276.257 384.684,276.501 384.765 C 276.724 384.839,277.090 384.717,277.315 384.492 C 277.539 384.268,277.911 384.156,278.141 384.244 C 278.407 384.346,278.483 384.280,278.349 384.064 C 278.209 383.837,278.301 383.786,278.628 383.911 C 278.898 384.015,279.118 383.957,279.118 383.783 C 279.118 383.609,279.323 383.545,279.574 383.642 C 279.872 383.756,279.958 383.699,279.820 383.476 C 279.678 383.246,279.774 383.198,280.114 383.329 C 280.454 383.460,280.550 383.412,280.408 383.182 C 280.266 382.952,280.362 382.904,280.702 383.035 C 281.002 383.150,281.134 383.111,281.027 382.938 C 280.863 382.673,281.332 382.534,282.276 382.568 C 282.477 382.575,282.554 382.441,282.449 382.270 C 282.328 382.074,282.444 382.031,282.761 382.153 C 283.101 382.283,283.197 382.235,283.055 382.005 C 282.913 381.776,283.009 381.728,283.349 381.858 C 283.690 381.989,283.785 381.941,283.643 381.711 C 283.498 381.476,283.604 381.436,283.987 381.583 C 284.292 381.700,284.443 381.698,284.324 381.579 C 284.036 381.291,285.857 380.538,286.252 380.782 C 286.447 380.903,286.472 380.829,286.321 380.584 C 286.144 380.298,286.215 380.246,286.585 380.388 C 286.925 380.518,287.021 380.470,286.879 380.241 C 286.737 380.011,286.833 379.963,287.173 380.094 C 287.513 380.224,287.609 380.176,287.467 379.947 C 287.325 379.717,287.421 379.669,287.761 379.800 C 288.101 379.930,288.197 379.882,288.055 379.653 C 287.913 379.423,288.009 379.375,288.349 379.505 C 288.690 379.636,288.785 379.588,288.643 379.358 C 288.502 379.129,288.597 379.081,288.938 379.211 C 289.278 379.342,289.374 379.294,289.232 379.064 C 289.090 378.835,289.186 378.787,289.526 378.917 C 289.866 379.048,289.962 379.000,289.820 378.770 C 289.678 378.541,289.774 378.493,290.114 378.623 C 290.454 378.754,290.550 378.706,290.408 378.476 C 290.266 378.246,290.362 378.198,290.702 378.329 C 291.042 378.460,291.138 378.412,290.996 378.182 C 290.855 377.952,290.950 377.904,291.291 378.035 C 291.631 378.165,291.727 378.117,291.585 377.888 C 291.443 377.658,291.539 377.610,291.879 377.741 C 292.219 377.871,292.315 377.823,292.173 377.594 C 292.031 377.364,292.127 377.316,292.467 377.447 C 292.745 377.553,292.897 377.519,292.805 377.371 C 292.670 377.152,293.784 376.569,294.044 376.722 C 294.085 376.745,294.393 376.490,294.729 376.154 C 295.065 375.818,295.535 375.618,295.773 375.709 C 296.052 375.816,296.132 375.754,295.996 375.535 C 295.855 375.305,295.950 375.257,296.291 375.388 C 296.569 375.495,296.720 375.461,296.629 375.312 C 296.464 375.045,297.570 374.529,298.037 374.655 C 298.170 374.691,298.181 374.562,298.062 374.369 C 297.912 374.127,298.002 374.078,298.349 374.211 C 298.628 374.318,298.779 374.284,298.687 374.135 C 298.522 373.868,299.629 373.352,300.095 373.478 C 300.229 373.514,300.240 373.386,300.121 373.193 C 299.967 372.945,300.067 372.904,300.457 373.054 C 300.762 373.171,300.917 373.172,300.802 373.057 C 300.495 372.750,301.705 371.987,302.105 372.234 C 302.307 372.359,302.364 372.315,302.247 372.125 C 302.048 371.803,303.129 371.283,303.676 371.437 C 303.838 371.482,303.872 371.421,303.752 371.301 C 303.432 370.981,304.641 370.222,305.074 370.471 C 305.276 370.587,305.343 370.574,305.222 370.441 C 304.936 370.126,306.087 369.322,306.478 369.564 C 306.644 369.666,306.743 369.574,306.698 369.360 C 306.654 369.145,306.846 368.989,307.129 369.011 C 307.411 369.033,307.568 368.934,307.479 368.790 C 307.330 368.549,307.761 368.403,308.331 368.502 C 308.464 368.525,308.489 368.408,308.387 368.243 C 308.216 367.967,308.612 367.809,309.213 367.914 C 309.346 367.937,309.372 367.820,309.269 367.654 C 309.099 367.379,309.495 367.221,310.095 367.325 C 310.229 367.349,310.254 367.232,310.152 367.066 C 309.981 366.790,310.377 366.633,310.978 366.737 C 311.111 366.760,311.136 366.644,311.034 366.478 C 310.864 366.202,311.259 366.045,311.860 366.149 C 311.993 366.172,312.019 366.055,311.916 365.890 C 311.746 365.614,312.142 365.456,312.742 365.561 C 312.876 365.584,312.901 365.467,312.799 365.301 C 312.628 365.026,313.024 364.868,313.625 364.972 C 313.758 364.996,313.783 364.879,313.681 364.713 C 313.514 364.443,313.894 364.284,314.485 364.377 C 314.607 364.396,314.673 364.246,314.632 364.044 C 314.592 363.842,314.781 363.675,315.053 363.673 C 315.324 363.671,315.655 363.550,315.788 363.405 C 315.926 363.254,315.872 363.232,315.662 363.353 C 315.460 363.469,315.294 363.505,315.294 363.434 C 315.294 363.227,316.798 362.296,317.235 362.232 C 317.452 362.200,317.733 362.061,317.859 361.922 C 317.985 361.784,317.890 361.768,317.647 361.886 C 317.404 362.005,317.457 361.898,317.764 361.649 C 318.071 361.399,318.426 361.259,318.552 361.338 C 318.679 361.416,318.879 361.325,318.996 361.136 C 319.137 360.907,319.069 360.864,318.795 361.006 C 318.568 361.124,318.633 361.016,318.940 360.767 C 319.247 360.517,319.602 360.377,319.729 360.455 C 319.856 360.534,320.055 360.443,320.172 360.253 C 320.313 360.025,320.246 359.981,319.972 360.123 C 319.745 360.241,319.810 360.134,320.117 359.884 C 320.424 359.635,320.779 359.495,320.905 359.573 C 321.032 359.651,321.232 359.561,321.349 359.371 C 321.490 359.143,321.422 359.099,321.148 359.241 C 320.921 359.359,320.986 359.251,321.293 359.002 C 321.600 358.752,321.955 358.612,322.082 358.691 C 322.209 358.769,322.408 358.678,322.525 358.489 C 322.667 358.260,322.600 358.217,322.325 358.362 C 322.098 358.482,322.239 358.315,322.639 357.990 C 323.039 357.665,323.460 357.457,323.574 357.528 C 323.689 357.599,323.879 357.502,323.996 357.312 C 324.139 357.080,324.074 357.044,323.795 357.204 C 323.482 357.382,323.462 357.353,323.712 357.082 C 323.893 356.885,324.290 356.682,324.594 356.632 C 324.898 356.581,325.115 356.396,325.076 356.220 C 325.013 355.932,326.030 355.184,326.520 355.157 C 326.627 355.152,326.826 355.027,326.961 354.879 C 327.105 354.722,327.024 354.702,326.765 354.831 C 326.522 354.952,326.651 354.785,327.051 354.460 C 327.450 354.135,327.866 353.924,327.973 353.990 C 328.081 354.057,328.349 353.881,328.570 353.600 C 328.918 353.155,328.911 353.127,328.516 353.382 C 328.265 353.544,328.390 353.387,328.793 353.032 C 329.195 352.678,329.617 352.445,329.729 352.514 C 329.841 352.584,330.114 352.410,330.334 352.129 C 330.702 351.660,330.686 351.651,330.147 352.019 C 329.824 352.240,330.083 351.952,330.724 351.379 C 331.365 350.805,331.979 350.392,332.088 350.459 C 332.338 350.614,332.990 349.853,332.784 349.646 C 332.700 349.562,333.098 349.138,333.668 348.703 C 334.239 348.267,334.706 348.007,334.706 348.125 C 334.706 348.242,335.033 348.031,335.432 347.656 C 335.832 347.280,336.101 346.881,336.032 346.768 C 335.893 346.544,339.142 343.641,339.429 343.733 C 339.654 343.806,343.833 339.612,343.743 339.404 C 343.632 339.146,346.548 335.895,346.768 336.032 C 346.881 336.101,347.280 335.832,347.656 335.432 C 348.031 335.033,348.242 334.706,348.125 334.706 C 348.007 334.706,348.264 334.244,348.694 333.679 C 349.125 333.115,349.580 332.716,349.705 332.794 C 349.956 332.949,350.660 332.229,350.456 332.025 C 350.386 331.955,350.800 331.372,351.375 330.728 C 351.950 330.085,352.240 329.824,352.019 330.147 C 351.651 330.686,351.660 330.702,352.129 330.334 C 352.410 330.114,352.584 329.841,352.514 329.729 C 352.445 329.617,352.678 329.195,353.032 328.793 C 353.387 328.390,353.544 328.265,353.382 328.516 C 353.127 328.911,353.155 328.918,353.600 328.570 C 353.881 328.349,354.054 328.077,353.985 327.964 C 353.915 327.852,354.148 327.430,354.503 327.028 C 354.857 326.625,355.015 326.501,354.853 326.751 C 354.597 327.147,354.625 327.154,355.070 326.805 C 355.352 326.584,355.526 326.313,355.457 326.203 C 355.271 325.901,355.810 325.147,356.211 325.147 C 356.404 325.147,356.598 324.898,356.643 324.594 C 356.687 324.290,356.885 323.893,357.082 323.712 C 357.353 323.462,357.382 323.482,357.204 323.795 C 357.044 324.074,357.080 324.139,357.312 323.996 C 357.502 323.879,357.599 323.689,357.528 323.574 C 357.457 323.460,357.665 323.039,357.990 322.639 C 358.315 322.239,358.482 322.098,358.362 322.325 C 358.217 322.600,358.260 322.667,358.489 322.525 C 358.678 322.408,358.769 322.209,358.691 322.082 C 358.612 321.955,358.752 321.600,359.002 321.293 C 359.251 320.986,359.359 320.921,359.241 321.148 C 359.099 321.422,359.143 321.490,359.371 321.349 C 359.561 321.232,359.651 321.032,359.573 320.905 C 359.495 320.779,359.635 320.424,359.884 320.117 C 360.134 319.810,360.241 319.745,360.123 319.972 C 359.981 320.246,360.025 320.313,360.253 320.172 C 360.443 320.055,360.534 319.856,360.455 319.729 C 360.377 319.602,360.517 319.247,360.767 318.940 C 361.016 318.633,361.124 318.568,361.006 318.795 C 360.864 319.069,360.907 319.137,361.136 318.996 C 361.325 318.879,361.416 318.679,361.338 318.552 C 361.259 318.426,361.399 318.071,361.649 317.764 C 361.898 317.457,362.005 317.404,361.886 317.647 C 361.762 317.902,361.782 317.986,361.934 317.847 C 362.080 317.714,362.200 317.383,362.202 317.112 C 362.204 316.840,362.381 316.654,362.595 316.698 C 362.810 316.743,362.913 316.663,362.825 316.521 C 362.738 316.379,362.870 316.012,363.119 315.705 C 363.369 315.398,363.476 315.346,363.357 315.588 C 363.232 315.843,363.252 315.928,363.405 315.788 C 363.550 315.655,363.671 315.324,363.673 315.053 C 363.675 314.781,363.842 314.592,364.044 314.632 C 364.246 314.673,364.396 314.607,364.377 314.485 C 364.284 313.894,364.443 313.514,364.713 313.681 C 364.879 313.783,364.996 313.758,364.972 313.625 C 364.868 313.024,365.026 312.628,365.301 312.799 C 365.467 312.901,365.584 312.876,365.561 312.742 C 365.456 312.142,365.614 311.746,365.890 311.916 C 366.055 312.019,366.172 311.993,366.149 311.860 C 366.045 311.259,366.202 310.864,366.478 311.034 C 366.644 311.136,366.760 311.111,366.737 310.978 C 366.633 310.377,366.790 309.981,367.066 310.152 C 367.232 310.254,367.349 310.229,367.325 310.095 C 367.221 309.495,367.379 309.099,367.654 309.269 C 367.820 309.372,367.937 309.346,367.914 309.213 C 367.809 308.612,367.967 308.216,368.243 308.387 C 368.408 308.489,368.525 308.464,368.502 308.331 C 368.399 307.738,368.553 307.333,368.820 307.498 C 368.983 307.598,369.039 307.489,368.947 307.251 C 368.857 307.016,368.945 306.724,369.143 306.602 C 369.388 306.450,369.427 306.502,369.265 306.765 C 369.106 307.021,369.142 307.079,369.371 306.937 C 369.561 306.820,369.639 306.601,369.547 306.451 C 369.316 306.078,370.139 304.949,370.441 305.222 C 370.574 305.343,370.587 305.276,370.471 305.074 C 370.222 304.641,370.981 303.432,371.301 303.752 C 371.421 303.872,371.482 303.838,371.437 303.676 C 371.283 303.129,371.803 302.048,372.125 302.247 C 372.315 302.364,372.359 302.307,372.234 302.105 C 371.987 301.705,372.750 300.495,373.057 300.802 C 373.172 300.917,373.171 300.762,373.054 300.457 C 372.904 300.067,372.945 299.967,373.193 300.121 C 373.386 300.240,373.514 300.229,373.478 300.095 C 373.352 299.629,373.868 298.522,374.135 298.687 C 374.284 298.779,374.318 298.628,374.211 298.349 C 374.078 298.002,374.127 297.912,374.369 298.062 C 374.562 298.181,374.691 298.170,374.655 298.037 C 374.529 297.570,375.045 296.464,375.312 296.629 C 375.461 296.720,375.495 296.569,375.388 296.291 C 375.257 295.950,375.305 295.855,375.535 295.996 C 375.765 296.138,375.812 296.042,375.682 295.702 C 375.551 295.362,375.599 295.266,375.829 295.408 C 376.059 295.550,376.107 295.454,375.976 295.114 C 375.843 294.767,375.892 294.677,376.134 294.827 C 376.327 294.946,376.449 294.932,376.404 294.795 C 376.267 294.374,377.420 292.065,377.685 292.229 C 377.822 292.314,377.847 292.156,377.741 291.879 C 377.610 291.539,377.658 291.443,377.888 291.585 C 378.117 291.727,378.165 291.631,378.035 291.291 C 377.904 290.950,377.952 290.855,378.182 290.996 C 378.412 291.138,378.460 291.042,378.329 290.702 C 378.198 290.362,378.246 290.266,378.476 290.408 C 378.706 290.550,378.754 290.454,378.623 290.114 C 378.493 289.774,378.541 289.678,378.770 289.820 C 379.000 289.962,379.048 289.866,378.917 289.526 C 378.787 289.186,378.835 289.090,379.064 289.232 C 379.294 289.374,379.342 289.278,379.211 288.938 C 379.081 288.597,379.129 288.502,379.358 288.643 C 379.588 288.785,379.636 288.690,379.505 288.349 C 379.375 288.009,379.423 287.913,379.653 288.055 C 379.882 288.197,379.930 288.101,379.800 287.761 C 379.669 287.421,379.717 287.325,379.947 287.467 C 380.176 287.609,380.224 287.513,380.094 287.173 C 379.952 286.803,380.004 286.733,380.290 286.909 C 380.539 287.063,380.609 287.036,380.483 286.832 C 380.252 286.459,380.856 285.000,381.241 285.000 C 381.386 285.000,381.431 284.880,381.340 284.732 C 381.106 284.355,381.479 283.500,381.792 283.693 C 381.935 283.782,381.965 283.627,381.858 283.349 C 381.728 283.009,381.776 282.913,382.005 283.055 C 382.235 283.197,382.283 283.101,382.153 282.761 C 382.022 282.421,382.070 282.325,382.300 282.467 C 382.522 282.605,382.580 282.519,382.465 282.221 C 382.369 281.969,382.444 281.765,382.633 281.765 C 382.822 281.765,382.901 281.644,382.811 281.497 C 382.577 281.119,382.949 280.264,383.263 280.458 C 383.406 280.546,383.436 280.392,383.329 280.114 C 383.198 279.774,383.246 279.678,383.476 279.820 C 383.699 279.958,383.756 279.872,383.642 279.574 C 383.545 279.323,383.609 279.118,383.783 279.118 C 383.957 279.118,384.015 278.898,383.911 278.628 C 383.786 278.301,383.837 278.209,384.064 278.349 C 384.280 278.483,384.346 278.407,384.244 278.141 C 384.156 277.911,384.268 277.539,384.492 277.315 C 384.717 277.090,384.839 276.724,384.765 276.501 C 384.684 276.257,384.761 276.176,384.958 276.298 C 385.168 276.427,385.224 276.335,385.112 276.045 C 385.016 275.794,385.079 275.588,385.253 275.588 C 385.428 275.588,385.485 275.368,385.382 275.099 C 385.257 274.772,385.307 274.679,385.535 274.820 C 385.757 274.958,385.815 274.872,385.700 274.574 C 385.604 274.323,385.668 274.118,385.842 274.118 C 386.016 274.118,386.074 273.898,385.970 273.628 C 385.845 273.301,385.896 273.209,386.123 273.349 C 386.346 273.487,386.403 273.402,386.289 273.104 C 386.192 272.852,386.256 272.647,386.430 272.647 C 386.604 272.647,386.662 272.427,386.558 272.158 C 386.440 271.848,386.487 271.740,386.687 271.864 C 386.892 271.991,386.945 271.836,386.838 271.425 C 386.725 270.993,386.780 270.857,387.009 270.999 C 387.228 271.134,387.285 271.046,387.171 270.751 C 387.075 270.500,387.138 270.294,387.312 270.294 C 387.486 270.294,387.544 270.074,387.441 269.805 C 387.322 269.495,387.369 269.387,387.570 269.511 C 387.775 269.638,387.828 269.483,387.720 269.072 C 387.607 268.640,387.662 268.504,387.891 268.646 C 388.110 268.781,388.167 268.694,388.053 268.398 C 387.957 268.147,388.021 267.941,388.195 267.941 C 388.369 267.941,388.435 267.743,388.342 267.500 C 388.249 267.257,388.315 267.059,388.489 267.059 C 388.663 267.059,388.721 266.839,388.617 266.569 C 388.498 266.260,388.546 266.152,388.746 266.276 C 388.951 266.402,389.004 266.247,388.897 265.837 C 388.790 265.430,388.843 265.272,389.044 265.396 C 389.244 265.520,389.297 265.361,389.191 264.954 C 389.085 264.548,389.137 264.389,389.338 264.513 C 389.539 264.637,389.591 264.479,389.485 264.072 C 389.379 263.665,389.432 263.507,389.632 263.631 C 389.833 263.755,389.886 263.596,389.779 263.190 C 389.673 262.783,389.726 262.625,389.926 262.749 C 390.127 262.872,390.180 262.714,390.073 262.307 C 389.967 261.901,390.020 261.742,390.220 261.866 C 390.421 261.990,390.474 261.832,390.367 261.425 C 390.261 261.018,390.314 260.860,390.514 260.984 C 390.712 261.106,390.771 260.959,390.674 260.589 C 390.589 260.265,390.663 260.000,390.839 260.000 C 391.014 260.000,391.082 259.801,390.989 259.559 C 390.896 259.316,390.954 259.118,391.117 259.118 C 391.281 259.118,391.341 258.832,391.250 258.483 C 391.143 258.077,391.196 257.919,391.397 258.043 C 391.597 258.167,391.650 258.008,391.544 257.601 C 391.438 257.195,391.490 257.036,391.691 257.160 C 391.888 257.282,391.947 257.136,391.850 256.765 C 391.765 256.441,391.831 256.176,391.997 256.176 C 392.162 256.176,392.223 255.891,392.132 255.542 C 392.026 255.136,392.079 254.978,392.279 255.101 C 392.476 255.223,392.535 255.077,392.438 254.706 C 392.354 254.383,392.420 254.118,392.585 254.118 C 392.751 254.118,392.811 253.832,392.720 253.483 C 392.604 253.038,392.659 252.914,392.907 253.067 C 393.164 253.226,393.204 253.067,393.057 252.481 C 392.924 251.949,392.960 251.742,393.165 251.868 C 393.358 251.988,393.417 251.838,393.321 251.471 C 393.236 251.147,393.302 250.882,393.468 250.882 C 393.633 250.882,393.699 250.618,393.615 250.294 C 393.530 249.971,393.596 249.706,393.762 249.706 C 393.927 249.706,393.993 249.441,393.909 249.118 C 393.824 248.794,393.890 248.529,394.056 248.529 C 394.221 248.529,394.287 248.265,394.203 247.941 C 394.118 247.618,394.184 247.353,394.350 247.353 C 394.515 247.353,394.582 247.088,394.497 246.765 C 394.412 246.441,394.473 246.176,394.631 246.176 C 394.789 246.176,394.851 245.826,394.770 245.397 C 394.664 244.846,394.722 244.681,394.969 244.834 C 395.219 244.989,395.264 244.835,395.127 244.289 C 395.020 243.863,395.062 243.529,395.221 243.529 C 395.378 243.529,395.440 243.179,395.358 242.750 C 395.252 242.199,395.310 242.034,395.557 242.187 C 395.808 242.341,395.852 242.188,395.715 241.642 C 395.608 241.216,395.650 240.882,395.810 240.882 C 395.967 240.882,396.032 240.551,395.954 240.147 C 395.877 239.743,395.943 239.412,396.101 239.412 C 396.260 239.412,396.326 239.081,396.248 238.676 C 396.171 238.272,396.233 237.941,396.385 237.941 C 396.538 237.941,396.602 237.525,396.527 237.017 C 396.434 236.384,396.495 236.157,396.721 236.296 C 396.949 236.438,396.995 236.226,396.871 235.603 C 396.771 235.106,396.816 234.706,396.971 234.706 C 397.125 234.706,397.193 234.309,397.122 233.824 C 397.050 233.338,397.117 232.941,397.269 232.941 C 397.421 232.941,397.487 232.544,397.416 232.059 C 397.342 231.556,397.419 231.176,397.595 231.176 C 397.787 231.176,397.838 230.767,397.730 230.101 C 397.613 229.380,397.658 229.090,397.867 229.219 C 398.077 229.349,398.126 229.013,398.015 228.190 C 397.906 227.371,397.954 227.032,398.163 227.161 C 398.370 227.289,398.421 226.963,398.316 226.177 C 398.222 225.477,398.278 225.000,398.455 225.000 C 398.634 225.000,398.690 224.458,398.597 223.632 C 398.489 222.677,398.541 222.325,398.768 222.465 C 398.996 222.607,399.040 222.228,398.917 221.186 C 398.803 220.224,398.851 219.706,399.055 219.706 C 399.260 219.706,399.311 219.143,399.202 218.088 C 399.092 217.022,399.144 216.471,399.354 216.471 C 399.568 216.471,399.615 215.798,399.499 214.412 C 399.400 213.224,399.441 212.353,399.598 212.353 C 399.939 212.353,399.921 188.301,399.579 187.556 C 399.445 187.263,399.419 186.311,399.521 185.441 C 399.643 184.399,399.594 183.789,399.376 183.654 C 399.165 183.524,399.106 182.936,399.214 182.027 C 399.316 181.163,399.260 180.529,399.071 180.412 C 398.886 180.298,398.833 179.765,398.940 179.098 C 399.050 178.407,398.994 177.899,398.792 177.775 C 398.591 177.651,398.535 177.143,398.645 176.451 C 398.756 175.763,398.700 175.252,398.500 175.129 C 398.317 175.016,398.249 174.565,398.343 174.093 C 398.435 173.634,398.370 173.172,398.199 173.066 C 398.016 172.953,397.965 172.464,398.075 171.878 C 398.201 171.207,398.150 170.882,397.918 170.882 C 397.693 170.882,397.634 170.580,397.748 170.011 C 397.845 169.527,397.785 169.056,397.614 168.950 C 397.444 168.845,397.383 168.451,397.477 168.074 C 397.572 167.697,397.506 167.300,397.330 167.192 C 397.155 167.083,397.089 166.686,397.183 166.309 C 397.278 165.933,397.212 165.536,397.036 165.427 C 396.861 165.319,396.796 164.914,396.894 164.527 C 397.001 164.097,396.941 163.824,396.738 163.824 C 396.534 163.824,396.476 163.549,396.587 163.106 C 396.686 162.712,396.629 162.304,396.460 162.199 C 396.291 162.095,396.229 161.767,396.324 161.471 C 396.418 161.174,396.351 160.843,396.176 160.735 C 396.002 160.627,395.935 160.296,396.029 160.000 C 396.123 159.704,396.057 159.373,395.882 159.265 C 395.707 159.157,395.645 158.815,395.743 158.505 C 395.851 158.166,395.783 157.941,395.574 157.941 C 395.370 157.941,395.289 157.697,395.379 157.353 C 395.464 157.030,395.408 156.688,395.255 156.593 C 395.101 156.499,395.057 156.168,395.155 155.858 C 395.262 155.521,395.195 155.294,394.988 155.294 C 394.790 155.294,394.721 155.090,394.827 154.816 C 394.928 154.553,394.864 154.161,394.686 153.946 C 394.507 153.731,394.441 153.426,394.538 153.269 C 394.636 153.111,394.572 152.893,394.397 152.785 C 394.221 152.676,394.147 152.407,394.232 152.186 C 394.317 151.964,394.250 151.700,394.085 151.597 C 393.919 151.495,393.853 151.230,393.938 151.009 C 394.023 150.788,393.956 150.523,393.791 150.421 C 393.625 150.318,393.559 150.054,393.644 149.833 C 393.728 149.612,393.669 149.351,393.512 149.254 C 393.354 149.157,393.305 148.948,393.403 148.790 C 393.500 148.633,393.420 148.311,393.225 148.075 C 393.029 147.840,392.968 147.647,393.088 147.647 C 393.209 147.647,393.147 147.454,392.952 147.219 C 392.756 146.983,392.676 146.661,392.774 146.504 C 392.871 146.346,392.822 146.138,392.665 146.040 C 392.507 145.943,392.453 145.669,392.544 145.432 C 392.635 145.194,392.549 145.000,392.353 145.000 C 392.157 145.000,392.070 144.806,392.162 144.568 C 392.253 144.331,392.199 144.057,392.041 143.960 C 391.884 143.862,391.826 143.669,391.912 143.529 C 391.998 143.390,391.932 143.191,391.765 143.088 C 391.598 142.985,391.541 142.772,391.638 142.614 C 391.736 142.456,391.655 142.134,391.460 141.899 C 391.264 141.663,391.203 141.471,391.324 141.471 C 391.444 141.471,391.378 141.272,391.176 141.029 C 390.975 140.787,390.909 140.588,391.029 140.588 C 391.150 140.588,391.084 140.390,390.882 140.147 C 390.681 139.904,390.625 139.706,390.758 139.706 C 390.891 139.706,390.852 139.557,390.670 139.376 C 390.489 139.194,390.410 138.864,390.496 138.641 C 390.581 138.418,390.509 138.235,390.335 138.235 C 390.161 138.235,390.095 138.037,390.188 137.794 C 390.281 137.551,390.215 137.353,390.041 137.353 C 389.867 137.353,389.801 137.154,389.894 136.912 C 389.987 136.669,389.921 136.471,389.747 136.471 C 389.573 136.471,389.506 136.272,389.600 136.029 C 389.693 135.787,389.626 135.588,389.452 135.588 C 389.278 135.588,389.212 135.390,389.305 135.147 C 389.399 134.904,389.328 134.706,389.149 134.706 C 388.970 134.706,388.839 134.607,388.858 134.485 C 388.878 134.364,388.861 134.165,388.822 134.044 C 388.782 133.923,388.717 133.691,388.676 133.529 C 388.636 133.368,388.577 133.202,388.544 133.162 C 388.512 133.121,388.426 132.763,388.353 132.366 C 388.280 131.968,388.058 131.540,387.860 131.414 C 387.662 131.288,387.615 131.183,387.757 131.181 C 387.898 131.178,387.848 130.978,387.647 130.735 C 387.446 130.493,387.380 130.294,387.500 130.294 C 387.620 130.294,387.554 130.096,387.353 129.853 C 387.152 129.610,387.074 129.412,387.180 129.412 C 387.287 129.412,387.210 129.114,387.010 128.750 C 386.810 128.386,386.604 127.829,386.551 127.513 C 386.499 127.196,386.360 126.865,386.243 126.777 C 386.125 126.690,385.983 126.353,385.926 126.029 C 385.870 125.706,385.738 125.375,385.632 125.294 C 385.527 125.213,385.395 124.882,385.338 124.559 C 385.282 124.235,385.105 123.890,384.945 123.791 C 384.786 123.692,384.661 123.493,384.668 123.349 C 384.698 122.712,384.320 121.765,384.037 121.765 C 383.866 121.765,383.802 121.688,383.897 121.594 C 384.475 121.015,376.942 105.978,371.678 97.206 C 333.666 33.853,262.498 -3.987,189.412 0.294 M219.998 69.633 C 221.330 70.299,242.059 107.309,242.059 109.020 C 242.059 109.752,239.785 114.078,232.966 126.321 L 223.873 142.647 241.863 142.648 C 258.407 142.648,259.934 142.689,260.866 143.162 C 262.131 143.805,282.945 180.907,282.934 182.500 C 282.930 183.101,280.037 188.580,273.848 199.706 L 264.768 216.029 283.046 216.176 C 293.099 216.257,301.554 216.436,301.835 216.574 C 302.717 217.007,323.824 254.704,323.824 255.846 C 323.824 256.698,324.144 256.096,312.916 276.356 C 301.614 296.750,302.564 295.163,301.407 295.566 C 299.664 296.174,259.472 295.989,258.270 295.367 C 257.395 294.915,256.190 292.890,248.291 278.603 C 243.350 269.665,239.231 262.357,239.139 262.362 C 239.046 262.367,234.934 269.680,230.000 278.612 C 221.936 293.211,220.925 294.905,220.000 295.370 C 219.042 295.852,217.510 295.882,197.843 295.811 L 176.716 295.735 175.932 294.850 C 175.500 294.364,171.183 286.791,166.337 278.023 C 161.492 269.254,157.507 262.108,157.481 262.143 C 157.455 262.178,153.490 269.353,148.670 278.088 C 143.850 286.824,139.527 294.368,139.065 294.853 L 138.224 295.735 117.127 295.811 C 97.483 295.882,95.960 295.852,95.019 295.370 C 93.766 294.729,72.992 257.654,72.959 256.000 C 72.928 254.404,93.721 217.353,95.019 216.692 C 95.948 216.219,97.468 216.177,113.897 216.177 C 123.724 216.177,131.762 216.077,131.759 215.956 C 131.757 215.835,127.720 208.456,122.789 199.559 C 115.645 186.669,113.828 183.173,113.844 182.353 C 113.879 180.567,134.534 143.836,135.882 143.162 C 136.828 142.690,138.358 142.648,154.779 142.648 C 164.607 142.647,172.647 142.588,172.647 142.515 C 172.647 142.443,168.586 135.064,163.623 126.118 C 157.404 114.907,154.600 109.579,154.600 108.971 C 154.600 108.117,174.631 71.519,175.826 70.190 C 176.730 69.184,177.346 69.155,198.235 69.137 C 217.410 69.120,219.048 69.157,219.998 69.633 M170.310 92.034 C 165.223 101.233,161.057 108.857,161.052 108.976 C 161.047 109.095,165.209 116.716,170.301 125.911 L 179.559 142.630 198.356 142.565 L 217.154 142.500 226.406 125.882 C 231.495 116.743,235.659 109.132,235.659 108.971 C 235.659 108.809,231.495 101.199,226.406 92.059 L 217.154 75.441 198.356 75.374 L 179.559 75.308 170.310 92.034 M138.127 150.071 C 135.137 155.241,120.295 182.210,120.297 182.468 C 120.298 182.648,124.443 190.272,129.509 199.412 L 138.719 216.029 157.518 216.029 L 176.316 216.029 185.202 200.000 C 190.089 191.184,194.284 183.634,194.525 183.222 C 194.950 182.494,194.701 182.003,185.632 165.722 L 176.302 148.971 157.576 148.895 L 138.851 148.819 138.127 150.071 M183.235 148.989 C 183.235 149.200,197.922 175.658,198.205 175.958 C 198.355 176.116,209.636 156.194,213.447 149.044 C 213.511 148.923,206.740 148.824,198.400 148.824 C 190.059 148.824,183.235 148.898,183.235 148.989 M211.087 165.625 L 201.733 182.423 209.816 197.021 C 214.262 205.049,218.471 212.643,219.170 213.897 L 220.441 216.176 239.169 216.176 L 257.897 216.176 267.204 199.383 C 272.664 189.530,276.442 182.407,276.343 182.149 C 276.250 181.908,272.059 174.310,267.030 165.267 L 257.887 148.824 239.164 148.825 L 220.441 148.827 211.087 165.625 M197.715 189.764 C 195.952 192.679,183.202 215.947,183.310 216.055 C 183.380 216.125,190.210 216.148,198.487 216.106 L 213.538 216.029 206.080 202.571 C 197.463 187.021,198.455 188.540,197.715 189.764 M97.848 222.574 C 96.738 224.488,80.095 254.517,79.790 255.157 C 79.365 256.045,79.400 256.114,88.634 272.804 L 97.904 289.559 116.673 289.630 L 135.441 289.701 144.779 272.811 L 154.116 255.920 144.779 239.141 L 135.441 222.362 116.709 222.357 C 106.406 222.355,97.918 222.452,97.848 222.574 M142.353 222.463 C 142.353 222.580,157.330 249.487,157.476 249.633 C 157.566 249.723,172.647 222.745,172.647 222.495 C 172.647 222.417,165.831 222.353,157.500 222.353 C 149.169 222.353,142.353 222.403,142.353 222.463 M170.387 238.905 C 165.342 248.000,161.173 255.584,161.122 255.759 C 161.071 255.933,165.199 263.639,170.294 272.883 L 179.559 289.689 198.354 289.624 L 217.150 289.559 226.373 272.941 C 232.110 262.604,235.554 256.101,235.486 255.735 C 235.425 255.412,231.275 247.801,226.263 238.824 L 217.151 222.500 198.355 222.434 L 179.559 222.368 170.387 238.905 M224.238 222.832 C 224.473 223.444,238.815 249.197,239.072 249.468 C 239.178 249.579,242.176 244.426,245.735 238.016 C 249.294 231.605,252.707 225.459,253.319 224.357 L 254.432 222.353 239.243 222.353 C 225.334 222.353,224.070 222.393,224.238 222.832 M251.908 239.156 C 244.630 252.230,242.618 256.065,242.842 256.435 C 243.001 256.697,247.208 264.290,252.191 273.309 L 261.251 289.706 279.981 289.706 L 298.712 289.706 307.937 273.015 C 313.010 263.835,317.212 256.225,317.273 256.106 C 317.334 255.986,313.182 248.342,308.046 239.120 L 298.708 222.353 279.985 222.353 L 261.263 222.353 251.908 239.156 M343.529 339.493 C 343.529 339.538,342.570 340.498,341.397 341.626 L 339.265 343.676 341.316 341.544 C 343.221 339.564,343.529 339.277,343.529 339.493 " stroke="none" fill="#585858" fill-rule="evenodd"></path><path id="path2" d="" stroke="none" fill="#585858" fill-rule="evenodd"></path><path id="path3" d="M339.118 56.324 C 339.666 56.890,340.182 57.353,340.262 57.353 C 340.343 57.353,339.961 56.890,339.412 56.324 C 338.863 55.757,338.348 55.294,338.267 55.294 C 338.186 55.294,338.569 55.757,339.118 56.324 M343.235 60.386 C 343.235 60.437,343.665 60.867,344.191 61.342 L 345.147 62.206 344.283 61.250 C 343.478 60.359,343.235 60.159,343.235 60.386 M187.721 69.338 C 193.504 69.383,202.967 69.383,208.750 69.338 C 214.533 69.294,209.801 69.257,198.235 69.257 C 186.669 69.257,181.938 69.294,187.721 69.338 M189.065 75.220 C 194.294 75.265,202.765 75.265,207.889 75.220 C 213.013 75.175,208.735 75.139,198.382 75.139 C 188.029 75.139,183.837 75.175,189.065 75.220 M145.830 142.868 C 150.897 142.913,159.103 142.913,164.065 142.867 C 169.028 142.822,164.882 142.785,154.853 142.785 C 144.824 142.785,140.763 142.822,145.830 142.868 M189.065 142.868 C 194.294 142.913,202.765 142.913,207.889 142.867 C 213.013 142.822,208.735 142.786,198.382 142.786 C 188.029 142.786,183.837 142.823,189.065 142.868 M232.889 142.868 C 237.956 142.913,246.162 142.913,251.124 142.867 C 256.087 142.822,251.941 142.785,241.912 142.785 C 231.882 142.785,227.822 142.822,232.889 142.868 M138.722 148.750 C 138.647 148.871,147.097 148.971,157.500 148.971 C 167.903 148.971,176.353 148.871,176.278 148.750 C 176.100 148.462,138.900 148.462,138.722 148.750 M182.941 148.750 C 182.941 148.950,194.247 148.947,208.235 148.742 C 211.228 148.699,206.761 148.633,198.309 148.596 C 189.857 148.559,182.941 148.629,182.941 148.750 M229.948 148.750 C 235.176 148.795,243.647 148.795,248.771 148.750 C 253.896 148.705,249.618 148.668,239.265 148.668 C 228.912 148.668,224.719 148.705,229.948 148.750 M397.962 172.262 C 397.950 172.616,398.074 172.988,398.235 173.088 C 398.583 173.303,398.583 173.015,398.235 172.206 C 397.992 171.639,397.982 171.641,397.962 172.262 M398.529 176.845 C 398.529 177.267,398.667 177.697,398.835 177.801 C 399.036 177.925,399.072 177.704,398.941 177.157 C 398.670 176.030,398.529 175.923,398.529 176.845 M398.824 179.492 C 398.824 179.914,398.961 180.344,399.129 180.448 C 399.330 180.572,399.366 180.351,399.235 179.804 C 398.964 178.677,398.824 178.571,398.824 179.492 M399.118 182.434 C 399.118 183.017,399.242 183.572,399.394 183.666 C 399.559 183.768,399.602 183.389,399.500 182.727 C 399.272 181.250,399.118 181.132,399.118 182.434 M399.412 186.257 C 399.412 187.003,399.543 187.693,399.702 187.792 C 399.888 187.906,399.926 187.460,399.808 186.559 C 399.564 184.699,399.412 184.583,399.412 186.257 M399.807 191.912 C 399.808 193.206,399.859 193.699,399.922 193.007 C 399.984 192.315,399.983 191.256,399.920 190.654 C 399.856 190.052,399.806 190.618,399.807 191.912 M399.812 208.235 C 399.812 209.772,399.861 210.401,399.922 209.632 C 399.983 208.864,399.983 207.607,399.922 206.838 C 399.861 206.070,399.812 206.699,399.812 208.235 M399.412 213.873 C 399.412 215.696,399.557 215.650,399.806 213.750 C 399.916 212.909,399.874 212.353,399.700 212.353 C 399.542 212.353,399.412 213.037,399.412 213.873 M113.824 216.176 L 95.735 216.330 113.897 216.400 C 125.856 216.447,132.059 216.370,132.059 216.176 C 132.059 216.015,132.026 215.914,131.985 215.952 C 131.945 215.991,123.772 216.092,113.824 216.176 M138.722 216.250 C 138.797 216.371,147.247 216.471,157.500 216.471 C 167.753 216.471,176.203 216.371,176.278 216.250 C 176.353 216.129,167.903 216.029,157.500 216.029 C 147.097 216.029,138.647 216.129,138.722 216.250 M182.941 216.250 C 182.941 216.371,189.857 216.441,198.309 216.404 C 206.761 216.367,211.228 216.301,208.235 216.258 C 194.247 216.053,182.941 216.050,182.941 216.250 M229.779 216.397 C 234.915 216.442,243.320 216.442,248.456 216.397 C 253.592 216.352,249.390 216.315,239.118 216.315 C 228.846 216.315,224.643 216.352,229.779 216.397 M273.771 216.397 C 278.838 216.442,287.044 216.442,292.007 216.397 C 296.969 216.352,292.824 216.315,282.794 216.315 C 272.765 216.315,268.704 216.352,273.771 216.397 M399.118 217.696 C 399.118 219.148,399.263 219.101,399.499 217.574 C 399.593 216.963,399.546 216.471,399.393 216.471 C 399.242 216.471,399.118 217.022,399.118 217.696 M398.824 220.784 C 398.824 222.045,398.960 222.002,399.215 220.662 C 399.320 220.113,399.275 219.706,399.110 219.706 C 398.953 219.706,398.824 220.191,398.824 220.784 M107.301 222.279 C 112.529 222.324,121.000 222.324,126.124 222.279 C 131.249 222.234,126.971 222.197,116.618 222.197 C 106.265 222.197,102.072 222.234,107.301 222.279 M149.800 222.279 C 154.139 222.325,161.153 222.325,165.388 222.279 C 169.623 222.233,166.074 222.196,157.500 222.196 C 148.926 222.196,145.462 222.233,149.800 222.279 M186.324 222.273 C 203.867 222.477,217.284 222.480,217.161 222.279 C 217.086 222.158,208.594 222.089,198.291 222.127 C 187.989 222.164,182.603 222.230,186.324 222.273 M223.823 222.279 C 223.823 222.480,235.130 222.476,249.118 222.272 C 252.110 222.228,247.643 222.162,239.191 222.125 C 230.739 222.089,223.823 222.158,223.823 222.279 M270.662 222.279 C 275.798 222.324,284.202 222.324,289.338 222.279 C 294.474 222.234,290.272 222.197,280.000 222.197 C 269.728 222.197,265.526 222.234,270.662 222.279 M398.529 223.365 C 398.529 223.941,398.581 224.412,398.643 224.412 C 398.885 224.412,399.006 222.613,398.774 222.470 C 398.640 222.386,398.529 222.789,398.529 223.365 M398.235 225.882 C 398.235 226.368,398.286 226.765,398.349 226.765 C 398.411 226.765,398.521 226.368,398.592 225.882 C 398.663 225.397,398.612 225.000,398.478 225.000 C 398.345 225.000,398.235 225.397,398.235 225.882 M397.941 227.924 C 397.941 228.419,397.992 228.824,398.054 228.824 C 398.304 228.824,398.433 227.328,398.196 227.182 C 398.056 227.095,397.941 227.429,397.941 227.924 M397.647 229.836 C 397.647 230.737,397.815 230.810,398.026 230.000 C 398.111 229.677,398.060 229.338,397.914 229.248 C 397.767 229.157,397.647 229.422,397.647 229.836 M397.353 231.912 C 397.353 232.316,397.404 232.647,397.466 232.647 C 397.528 232.647,397.642 232.316,397.719 231.912 C 397.796 231.507,397.746 231.176,397.606 231.176 C 397.467 231.176,397.353 231.507,397.353 231.912 M397.059 233.676 C 397.059 234.081,397.110 234.412,397.172 234.412 C 397.234 234.412,397.348 234.081,397.425 233.676 C 397.502 233.272,397.451 232.941,397.312 232.941 C 397.173 232.941,397.059 233.272,397.059 233.676 M396.471 236.894 C 396.471 237.796,396.638 237.868,396.850 237.059 C 396.934 236.736,396.884 236.397,396.737 236.306 C 396.591 236.216,396.471 236.480,396.471 236.894 M380.735 285.882 C 380.484 286.368,380.345 286.765,380.426 286.765 C 380.507 286.765,380.778 286.368,381.029 285.882 C 381.280 285.397,381.420 285.000,381.339 285.000 C 381.258 285.000,380.986 285.397,380.735 285.882 M378.435 290.161 C 377.744 291.610,377.841 291.856,378.564 290.487 C 378.892 289.865,379.108 289.304,379.045 289.241 C 378.981 289.177,378.707 289.591,378.435 290.161 M107.301 289.926 C 112.529 289.971,121.000 289.971,126.124 289.926 C 131.249 289.881,126.971 289.844,116.618 289.844 C 106.265 289.844,102.072 289.881,107.301 289.926 M189.065 289.926 C 194.294 289.971,202.765 289.971,207.889 289.926 C 213.013 289.881,208.735 289.844,198.382 289.844 C 188.029 289.844,183.837 289.881,189.065 289.926 M270.662 289.926 C 275.798 289.971,284.202 289.971,289.338 289.926 C 294.474 289.881,290.272 289.844,280.000 289.844 C 269.728 289.844,265.526 289.881,270.662 289.926 M376.964 293.396 C 376.274 294.845,376.371 295.091,377.093 293.722 C 377.421 293.100,377.638 292.540,377.574 292.476 C 377.510 292.412,377.236 292.826,376.964 293.396 M106.250 295.809 C 112.033 295.853,121.496 295.853,127.279 295.809 C 133.063 295.764,128.331 295.728,116.765 295.728 C 105.199 295.728,100.467 295.764,106.250 295.809 M187.721 295.809 C 193.504 295.853,202.967 295.853,208.750 295.809 C 214.533 295.764,209.801 295.728,198.235 295.728 C 186.669 295.728,181.938 295.764,187.721 295.809 M269.485 295.809 C 275.268 295.853,284.732 295.853,290.515 295.809 C 296.298 295.764,291.566 295.728,280.000 295.728 C 268.434 295.728,263.702 295.764,269.485 295.809 M349.222 332.995 C 348.752 333.728,348.270 334.706,348.380 334.706 C 348.612 334.706,349.762 332.899,349.620 332.758 C 349.538 332.675,349.359 332.782,349.222 332.995 M345.183 337.631 C 344.438 338.610,343.883 339.412,343.950 339.412 C 344.214 339.412,346.839 336.152,346.693 336.006 C 346.607 335.921,345.927 336.652,345.183 337.631 M56.176 339.265 C 56.725 339.831,57.240 340.294,57.321 340.294 C 57.402 340.294,57.019 339.831,56.471 339.265 C 55.922 338.699,55.407 338.235,55.326 338.235 C 55.245 338.235,55.628 338.699,56.176 339.265 M60.735 343.824 C 61.367 344.471,61.950 345.000,62.031 345.000 C 62.112 345.000,61.661 344.471,61.029 343.824 C 60.398 343.176,59.814 342.647,59.734 342.647 C 59.653 342.647,60.103 343.176,60.735 343.824 M338.319 344.641 C 337.798 345.081,337.004 345.734,336.554 346.092 C 336.104 346.451,335.868 346.747,336.029 346.751 C 336.191 346.755,337.051 346.104,337.941 345.304 C 339.650 343.767,339.927 343.281,338.319 344.641 M333.872 348.671 C 333.018 349.142,332.437 349.706,332.809 349.704 C 332.963 349.704,333.485 349.377,333.971 348.980 C 334.942 348.183,334.915 348.097,333.872 348.671 M325.662 355.597 C 325.298 355.744,325.000 355.934,325.000 356.020 C 325.000 356.305,325.468 356.182,326.047 355.745 C 326.697 355.252,326.606 355.218,325.662 355.597 M287.574 379.726 C 286.967 380.046,286.471 380.374,286.471 380.454 C 286.471 380.534,287.000 380.330,287.647 380.000 C 288.294 379.670,288.824 379.336,288.824 379.259 C 288.824 379.066,288.821 379.067,287.574 379.726 M285.298 381.014 C 284.895 381.237,284.445 381.344,284.296 381.252 C 284.148 381.161,284.121 381.238,284.236 381.424 C 284.433 381.743,286.176 381.117,286.176 380.728 C 286.176 380.537,286.133 380.551,285.298 381.014 M282.160 382.333 C 281.650 382.644,281.132 382.809,281.010 382.699 C 280.888 382.590,280.883 382.666,281.000 382.868 C 281.224 383.257,281.678 383.097,282.794 382.237 C 283.615 381.604,283.269 381.656,282.160 382.333 M244.191 394.913 C 243.827 394.984,243.529 395.172,243.529 395.332 C 243.529 395.492,243.638 395.556,243.771 395.474 C 243.903 395.392,244.383 395.258,244.836 395.175 C 245.289 395.093,245.732 394.954,245.820 394.866 C 245.995 394.691,245.231 394.713,244.191 394.913 M231.176 397.606 C 231.176 397.746,231.507 397.796,231.912 397.719 C 232.316 397.642,232.647 397.528,232.647 397.466 C 232.647 397.404,232.316 397.353,231.912 397.353 C 231.507 397.353,231.176 397.467,231.176 397.606 M229.248 397.914 C 229.338 398.060,229.677 398.111,230.000 398.026 C 230.810 397.815,230.737 397.647,229.836 397.647 C 229.422 397.647,229.157 397.767,229.248 397.914 M172.206 398.235 C 173.015 398.583,173.303 398.583,173.088 398.235 C 172.988 398.074,172.616 397.950,172.262 397.962 C 171.641 397.982,171.639 397.992,172.206 398.235 M227.353 398.195 C 227.353 398.334,227.684 398.385,228.088 398.307 C 228.493 398.230,228.824 398.116,228.824 398.054 C 228.824 397.992,228.493 397.941,228.088 397.941 C 227.684 397.941,227.353 398.055,227.353 398.195 M225.000 398.478 C 225.000 398.612,225.397 398.663,225.882 398.592 C 226.368 398.521,226.765 398.411,226.765 398.349 C 226.765 398.286,226.368 398.235,225.882 398.235 C 225.397 398.235,225.000 398.345,225.000 398.478 M176.201 398.635 C 176.547 398.934,177.973 399.112,177.801 398.835 C 177.697 398.667,177.267 398.529,176.845 398.529 C 176.424 398.529,176.134 398.577,176.201 398.635 M222.470 398.774 C 222.613 399.006,224.412 398.885,224.412 398.643 C 224.412 398.581,223.941 398.529,223.365 398.529 C 222.789 398.529,222.386 398.640,222.470 398.774 M178.848 398.929 C 179.195 399.228,180.620 399.406,180.448 399.129 C 180.344 398.961,179.914 398.824,179.492 398.824 C 179.071 398.824,178.781 398.871,178.848 398.929 M219.706 399.110 C 219.706 399.275,220.113 399.320,220.662 399.215 C 222.002 398.960,222.045 398.824,220.784 398.824 C 220.191 398.824,219.706 398.953,219.706 399.110 M181.495 399.223 C 181.802 399.487,183.821 399.646,183.666 399.394 C 183.572 399.242,183.017 399.118,182.434 399.118 C 181.850 399.118,181.428 399.165,181.495 399.223 M216.471 399.393 C 216.471 399.546,216.963 399.593,217.574 399.499 C 219.101 399.263,219.148 399.118,217.696 399.118 C 217.022 399.118,216.471 399.242,216.471 399.393 M185.025 399.517 C 185.345 399.794,187.956 399.968,187.792 399.702 C 187.693 399.543,187.003 399.412,186.257 399.412 C 185.512 399.412,184.957 399.459,185.025 399.517 M212.353 399.700 C 212.353 399.874,212.909 399.916,213.750 399.806 C 215.650 399.557,215.696 399.412,213.873 399.412 C 213.037 399.412,212.353 399.542,212.353 399.700 M190.817 399.922 C 191.508 399.984,192.567 399.983,193.170 399.920 C 193.772 399.856,193.206 399.806,191.912 399.807 C 190.618 399.808,190.125 399.859,190.817 399.922 M207.141 399.922 C 207.914 399.983,209.106 399.982,209.788 399.921 C 210.471 399.859,209.838 399.809,208.382 399.810 C 206.926 399.811,206.368 399.862,207.141 399.922 " stroke="none" fill="#585858" fill-rule="evenodd"></path><path id="path4" d="M350.272 331.985 L 349.559 332.794 350.441 332.059 C 350.926 331.654,351.379 331.290,351.446 331.250 C 351.513 331.210,351.437 331.176,351.277 331.176 C 351.116 331.176,350.664 331.540,350.272 331.985 M347.631 334.926 L 346.618 336.029 347.721 335.016 C 348.327 334.458,348.824 333.962,348.824 333.913 C 348.824 333.688,348.575 333.900,347.631 334.926 M341.172 341.691 L 337.500 345.441 341.250 341.769 C 344.733 338.358,345.133 337.941,344.922 337.941 C 344.879 337.941,343.192 339.629,341.172 341.691 M334.690 347.868 L 333.676 348.971 334.779 347.957 C 335.806 347.014,336.018 346.765,335.793 346.765 C 335.744 346.765,335.248 347.261,334.690 347.868 M331.766 350.440 C 331.386 350.844,331.132 351.223,331.200 351.284 C 331.268 351.344,331.631 351.013,332.008 350.549 C 332.850 349.511,332.701 349.444,331.766 350.440 " stroke="none" fill="#585858" fill-rule="evenodd"></path></g></svg>